<svg id="Ícones" xmlns="http://www.w3.org/2000/svg" viewBox="0 0 152 40"><defs><style>.cls-1{fill:none;}.cls-2{fill:#fff;}.cls-3{fill:#00b6f0;}</style></defs><title>icons</title><g id="_12x12" data-name="12x12"><g id="Telefone"><rect class="cls-1" x="140" width="12" height="12"/><path class="cls-2" d="M150.69,8.59q0-.12-.5-.35l-.36-.2-.43-.24L149,7.6l-.17-.12-.24-.14a.4.4,0,0,0-.18,0q-.14,0-.34.19l-.37.42-.36.41q-.18.19-.3.19a.26.26,0,0,1-.16,0l-.13-.06-.17-.1-.12-.07a7,7,0,0,1-1.57-1.16,6.88,6.88,0,0,1-1.16-1.58l-.08-.12-.1-.17,0-.13a.47.47,0,0,1,0-.16.57.57,0,0,1,.19-.3,4.66,4.66,0,0,1,.41-.36,4.79,4.79,0,0,0,.42-.37.52.52,0,0,0,.19-.32.43.43,0,0,0,0-.19,2.35,2.35,0,0,0-.14-.24L144.41,3a2.74,2.74,0,0,0-.2-.36,3.92,3.92,0,0,1-.24-.42l-.19-.37q-.24-.47-.36-.5a.33.33,0,0,0-.14,0,2,2,0,0,0-.47.07,3.12,3.12,0,0,0-.46.14,1.72,1.72,0,0,0-.71.82,2.54,2.54,0,0,0-.35,1.25,1.25,1.25,0,0,0,0,.35l.08.38a1.47,1.47,0,0,0,.1.31,3.73,3.73,0,0,1,.14.37l.12.34a5.8,5.8,0,0,0,.55,1.16,9.12,9.12,0,0,0,1.44,1.78,10.32,10.32,0,0,0,1.78,1.44,6.29,6.29,0,0,0,1.16.56l.34.12.37.13.31.1a2.57,2.57,0,0,0,.38.08l.36,0a2.59,2.59,0,0,0,1.24-.34,1.77,1.77,0,0,0,.82-.72,3.12,3.12,0,0,0,.14-.46,2,2,0,0,0,.07-.47A.33.33,0,0,0,150.69,8.59Z"/></g><g id="Celular"><rect class="cls-1" x="128" width="12" height="12"/><path class="cls-2" d="M134.38,9.8A.51.51,0,0,1,134,10a.62.62,0,0,1-.37-.16.43.43,0,0,1-.16-.37.59.59,0,0,1,.16-.38.48.48,0,0,1,.37-.16.53.53,0,0,1,.54.54A.43.43,0,0,1,134.38,9.8Zm1.49-1.3a.24.24,0,0,1-.16.06h-3.43a.2.2,0,0,1-.14-.06.21.21,0,0,1-.06-.16V3.65a.21.21,0,0,1,.06-.16.2.2,0,0,1,.14-.06h3.43a.21.21,0,0,1,.22.22v4.7A.16.16,0,0,1,135.87,8.51Zm-1.33-5.72h-1.07a.1.1,0,0,1-.11-.11.1.1,0,0,1,.11-.11h1.07a.1.1,0,0,1,.11.11A.1.1,0,0,1,134.53,2.78ZM136.31,2a.82.82,0,0,0-.6-.25h-3.43a.86.86,0,0,0-.85.85V9.43a.86.86,0,0,0,.85.85h3.43a.85.85,0,0,0,.6-.25.8.8,0,0,0,.26-.6V2.57A.86.86,0,0,0,136.31,2Z"/></g><g id="Site"><rect class="cls-1" x="116" width="12" height="12"/><path class="cls-2" d="M119.42,1.55a5.71,5.71,0,0,0-1.86,1.87,4.55,4.55,0,0,0-.7,2.58,5.47,5.47,0,0,0,.7,2.58,4.92,4.92,0,0,0,1.86,1.87,5.08,5.08,0,0,0,2.59.7,5,5,0,0,0,2.58-.7,5.13,5.13,0,0,0,1.87-1.87A5,5,0,0,0,127.14,6a5,5,0,0,0-.68-2.58,5.13,5.13,0,0,0-1.87-1.87A5,5,0,0,0,122,.85,4.83,4.83,0,0,0,119.42,1.55Zm4.72,2.71q.14,0,0,.11H124l.11,0s0,0,0,.06.09.08,0,.13a.27.27,0,0,1-.22.07s0,0,0,0l-.11.08-.08,0-.11.06a.07.07,0,0,0,0,.08.14.14,0,0,1,0,.08s0,0-.06,0,0,0-.12.06-.12,0-.13.07,0,.07,0,.11a.09.09,0,0,1-.14,0s0,0,0,.06a.13.13,0,0,1,0,.08s0,.08,0,.1,0,0,0,0l.06,0,0,0s0,.06-.07.06,0,.15-.1.24l-.08,0-.11,0,0,0a.29.29,0,0,0-.11.12.16.16,0,0,0,0,.12.16.16,0,0,0,.12.08v.23a.34.34,0,0,0,0,.08.19.19,0,0,1,0,.1.09.09,0,0,1,0,.06s0,0-.07,0-.07-.12-.12-.3a1.05,1.05,0,0,0-.08-.16l-.06,0h0l0,0,0,0-.11,0-.11,0c-.1.08-.17.06-.19-.06a.14.14,0,0,0,0,.08.5.5,0,0,1,0,.07c0,.06-.07.06-.14,0s-.08,0-.18,0a.58.58,0,0,1-.19,0h0l0,0v0h-.1l-.06.07-.06.06a.29.29,0,0,1,0,.17s0,.1,0,.17a1.58,1.58,0,0,0,0,.18.66.66,0,0,0,.06.24.35.35,0,0,0,.16.19.41.41,0,0,0,.16,0,.34.34,0,0,0,.17,0,.13.13,0,0,0,.06,0l0-.07,0-.07a.18.18,0,0,1,.18-.13c.06,0,.09,0,.11,0l0,.06s0,0,0,.08l-.06.11,0,.07a.43.43,0,0,0,0,.16.34.34,0,0,1,0,.12h.1a.1.1,0,0,1,0,0v0a.16.16,0,0,0,.11.06.1.1,0,0,0,.11,0,.37.37,0,0,1,.08.1.46.46,0,0,1,.07.13.28.28,0,0,0,0,.1s0,.07,0,.08,0,0-.07,0,0,0,0,0a.07.07,0,0,0,0,.06.1.1,0,0,1,0,0,.12.12,0,0,0,0,.06l0,0a.23.23,0,0,0,.32.12c0,.13,0,.2-.1.22a.16.16,0,0,1-.12-.07.16.16,0,0,1,0-.13s0,0,0,.06l-.12-.1-.12-.1a.1.1,0,0,0,0-.06.28.28,0,0,1-.06-.1l0-.11s0,0,0,0a.47.47,0,0,1-.36-.07l-.14-.14a.22.22,0,0,0-.19-.1l-.1,0h-.1l-.11,0L121,7.74l-.12-.07-.08,0-.11-.06-.08-.06a.21.21,0,0,1-.06-.1.41.41,0,0,1,0-.16.45.45,0,0,0,0-.18.62.62,0,0,0-.12-.13.22.22,0,0,0-.13-.06s0,0,0-.1a.63.63,0,0,0-.1-.13s0,0-.07-.08a.66.66,0,0,0-.12-.13.26.26,0,0,1-.08-.12.22.22,0,0,1,0-.12h0l0,0-.06,0h0a.42.42,0,0,0,0,.1.26.26,0,0,0,0,.1l.11.19a.71.71,0,0,1,.16.42,0,0,0,0,1,0,0,.1.1,0,0,1,0-.07.16.16,0,0,0,0-.07s0-.05-.1-.08a.26.26,0,0,1-.11-.1h0s0-.09-.07-.16-.08-.11-.06-.13a.37.37,0,0,1-.1-.16,1.1,1.1,0,0,0-.07-.16l-.06-.06-.11-.07-.08,0,0-.06c-.14-.18-.19-.28-.13-.29s-.1,0-.14-.13a.38.38,0,0,1,0-.23h0a.43.43,0,0,1,0-.16c0-.09,0-.17,0-.24s0-.11.06-.11-.06,0-.07-.08a.15.15,0,0,1,0-.12s0,0,.06,0l.06.06c.06,0,.08-.07.06-.12l-.13-.14L118.6,4a.09.09,0,0,0,0-.12s-.07,0-.07,0a.31.31,0,0,0,0-.07.09.09,0,0,0,0-.06.13.13,0,0,1-.08,0,4.31,4.31,0,0,1,1.57-1.49h.16l.1,0,.1.07.07.07a.12.12,0,0,0,0-.12s.06-.06.14-.08a.31.31,0,0,1,.2,0l-.13-.17,0,0s-.14,0-.29,0l-.06,0-.1,0H120a3.43,3.43,0,0,1,.62-.28l.07.06.07.06s0,0,0,0a.13.13,0,0,0,0,.13.07.07,0,0,0,.08.06h.31c.14,0,.2,0,.17,0a.27.27,0,0,1,0,.11.27.27,0,0,0,.06.12.12.12,0,0,0,0-.1.18.18,0,0,1,0-.1l0,0,.07,0,.06,0s0,0-.06-.1,0,0-.06,0a.1.1,0,0,1-.07,0l-.07,0s0,0,0,0l0-.08a.26.26,0,0,1,.13,0,.24.24,0,0,1,.14,0c.12.06.14.12,0,.18a.33.33,0,0,1,.17,0q.08,0,.07.11,0-.11.11-.11a.22.22,0,0,1,.06.1l0,.08q.06.08.11,0l.11-.12.07-.07s-.06,0,0,0a.23.23,0,0,1,.18,0,.11.11,0,0,1,.06.06c0,.08,0,.12,0,.12a.18.18,0,0,1,0,.13c0,.06,0,.08-.1.07l-.1,0-.1,0-.1,0-.07.12-.07.11a.37.37,0,0,1-.34.07s0,0,0,0l-.06.08,0,.06a.33.33,0,0,0-.08.16s0,0,0,.08a.76.76,0,0,1,0,.12s.09,0,.12.08,0,.1,0,.1a.8.8,0,0,1,.4,0c.16.06.25.12.28.18s.09,0,.19,0a.36.36,0,0,1,.11.2.42.42,0,0,0,.08.18.11.11,0,0,0,.14,0h0l0,0,0,0,0,0v0a.21.21,0,0,1-.07-.11.15.15,0,0,1,0-.13L123,3.6a.32.32,0,0,0,.11-.11.14.14,0,0,0-.07-.14c-.06,0-.08-.08-.08-.11s0-.05,0-.08,0-.06,0-.08L123,3a.42.42,0,0,1,0-.1.15.15,0,0,1,0-.07.74.74,0,0,1,.22,0,.67.67,0,0,1,.23.06l.08,0,.12.06.06.06h0a.21.21,0,0,1,.06.1s0,.06-.06.07l.11,0c.07,0,.08,0,0,.07h.06a0,0,0,0,0,0,0s0,0,0,0h.11a0,0,0,0,0,0,0s0,0,0-.06l0,0h0s0,0,0,0a.1.1,0,0,0,0,0l0,0a.16.16,0,0,0,.06.07.16.16,0,0,1,.06.07.42.42,0,0,0,0,.1.27.27,0,0,0,.06.11l.1.06h.06s.07,0,.08,0,0,0,0,.06,0,0,0-.06a.27.27,0,0,0,0,.14.11.11,0,0,0,.12,0V4l-.11,0-.1,0-.1.08s-.07.08-.06.08a.33.33,0,0,0-.35-.07,1.26,1.26,0,0,0-.35.08.37.37,0,0,0-.14.1l0,0,0,.07s0,0,0,0l.08-.07.07-.06A.4.4,0,0,1,124.13,4.26Zm-1.4,5.86a.21.21,0,0,1,0-.14.32.32,0,0,0,.06-.14c-.07,0-.1-.07-.08-.17a.54.54,0,0,1,.19-.28.29.29,0,0,0,.08-.31,1.71,1.71,0,0,1,0-.26,2.2,2.2,0,0,0,0-.23s0,0,.06,0,.08,0,.08,0a.2.2,0,0,1,0-.07l0-.07.06-.06,0,0,.06,0,.08-.06.07,0s.06,0,.07,0,0,.06,0,.12,0,.1,0,.12a.77.77,0,0,1,0-.08.2.2,0,0,1,0-.11l.07,0h.07l.07,0a.1.1,0,0,0,.07,0,.91.91,0,0,1,.24.16v0h0l0,0h.06s0,0,.06,0l.06,0,0,0,0,0,0,0,.07,0,.08.06.06.06a.1.1,0,0,1,0,.08l.16.06s0,0,.08,0,.08,0,.08,0a4.16,4.16,0,0,1-2.34,1.27A.4.4,0,0,1,122.73,10.12Z"/></g><g id="E-Mail"><rect class="cls-1" x="104" width="12" height="12"/><path class="cls-2" d="M115.33,4.91q-2.2,1.49-3.34,2.3l-.61.44a3.11,3.11,0,0,1-.64.32,2,2,0,0,1-.73.16h0a1.78,1.78,0,0,1-.73-.16,3.55,3.55,0,0,1-.64-.32L108,7.21q-.91-.66-3.34-2.3a4.32,4.32,0,0,1-.67-.59V9.64a1,1,0,0,0,.31.76,1,1,0,0,0,.76.32h9.86a1.07,1.07,0,0,0,.76-.32,1,1,0,0,0,.31-.76V4.32A3.69,3.69,0,0,1,115.33,4.91Zm.36-3.31a1.06,1.06,0,0,0-.76-.31h-9.86a1,1,0,0,0-.79.35,1.35,1.35,0,0,0-.28.86,1.68,1.68,0,0,0,.37.92,3.07,3.07,0,0,0,.78.77q.22.17,1.37,1l1.76,1.21a2,2,0,0,1,.28.2,3.33,3.33,0,0,0,.36.26l.36.22a2,2,0,0,0,.38.18,1,1,0,0,0,.32.06h0a.75.75,0,0,0,.34-.06l.38-.18a2.64,2.64,0,0,0,.35-.22l.36-.26.28-.2,3.14-2.17a3.21,3.21,0,0,0,.82-.83,1.77,1.77,0,0,0,.32-1A1,1,0,0,0,115.69,1.6Z"/></g></g><g id="_16x16" data-name="16x16"><g id="LinkedIn"><rect class="cls-1" x="88" width="16" height="16"/><path class="cls-3" d="M91.6,1.34A1.58,1.58,0,0,0,90.43.91a1.63,1.63,0,0,0-1.18.43,1.47,1.47,0,0,0-.45,1.1,1.48,1.48,0,0,0,.45,1.09A1.56,1.56,0,0,0,90.4,4a1.66,1.66,0,0,0,1.2-.45,1.46,1.46,0,0,0,.46-1.09A1.61,1.61,0,0,0,91.6,1.34ZM92,15.09V5.2H88.9v9.89Zm1.82,0h3.1V9.39a2,2,0,0,1,.1-.77,1.59,1.59,0,0,1,1.57-1.15q1.57,0,1.57,2.14v5.47h3.07V9.23a4.59,4.59,0,0,0-1-3.18,3.66,3.66,0,0,0-5.62.53h-.06L96.38,5.2H93.73q.06,1.79.06,3.17Z"/></g><g id="Google_" data-name="Google+"><rect class="cls-1" x="72" width="16" height="16"/><path class="cls-3" d="M74.78,7a3.15,3.15,0,0,0,1.76.48h.22l0,.22a2.21,2.21,0,0,0,.13.62,2.64,2.64,0,0,0,.38.75h0a7.1,7.1,0,0,0-1.14.1,10.37,10.37,0,0,0-1.41.35,2.65,2.65,0,0,0-1.33.91,2.55,2.55,0,0,0-.51,1.62,2.78,2.78,0,0,0,.46,1.65,2.42,2.42,0,0,0,1.18.91,7.33,7.33,0,0,0,1.2.34,5.31,5.31,0,0,0,.86.08.09.09,0,0,0,.06,0l.06,0h.06a5.29,5.29,0,0,0,2.4-.54A3.13,3.13,0,0,0,81,11.39a4,4,0,0,0-1.66-2.85q-.8-.74-.8-1t.61-.86a3.09,3.09,0,0,0,1.09-2.53A4.33,4.33,0,0,0,80,2.59a1.68,1.68,0,0,0-.86-.9,1.31,1.31,0,0,1,.61-.1Q81,1.38,81,1V1H77.31L76.9,1a4.76,4.76,0,0,0-.9.24,4.63,4.63,0,0,0-1.1.54,3,3,0,0,0-.9,1,3.25,3.25,0,0,0-.4,1.63A2.73,2.73,0,0,0,74.78,7Zm4.14,6.08a2.81,2.81,0,0,1-1.74.64,3.38,3.38,0,0,1-1.9-.38,1.55,1.55,0,0,1-.85-1.28,1.8,1.8,0,0,1,.67-1.5,2.82,2.82,0,0,1,1.82-.74h.26a2.52,2.52,0,0,1,1.65.51,1.85,1.85,0,0,1,.69,1.34A1.62,1.62,0,0,1,78.93,13.09Zm-.42-7.6a1.58,1.58,0,0,1-1,1,1,1,0,0,1-.29,0A1.59,1.59,0,0,1,76.08,6a3,3,0,0,1-.75-1.36,3,3,0,0,1,0-1.7,1.45,1.45,0,0,1,.93-1,1.35,1.35,0,0,1,.32,0q1.47,0,2,1.73A2.69,2.69,0,0,1,78.51,5.49Zm6.26-1.42h-1.5v2.4h-2.4V8h2.4v2.4h1.5V8h2.4V6.46h-2.4Z"/></g><g id="Twitter"><rect class="cls-1" x="56" width="16" height="16"/><path class="cls-3" d="M69.63,3.92a2.89,2.89,0,0,0,1.31-1.66A7,7,0,0,1,69,3,2.85,2.85,0,0,0,66.85,2a2.94,2.94,0,0,0-2.16.88A2.9,2.9,0,0,0,63.81,5a2.13,2.13,0,0,0,.1.67,8.11,8.11,0,0,1-6.24-3.14,3,3,0,0,0-.42,1.5,2.92,2.92,0,0,0,1.34,2.53,3.3,3.3,0,0,1-1.34-.38v0a3,3,0,0,0,2.4,3,3.29,3.29,0,0,1-.8.1,1.62,1.62,0,0,1-.54-.06,2.91,2.91,0,0,0,1.06,1.5,3,3,0,0,0,1.76.61,6.38,6.38,0,0,1-4.48,1.25A8.37,8.37,0,0,0,61.28,14a8.24,8.24,0,0,0,4.64-1.33,8.37,8.37,0,0,0,3-3.25,8.84,8.84,0,0,0,1-4V5a6.51,6.51,0,0,0,1.5-1.57A6.93,6.93,0,0,1,69.63,3.92Z"/></g><g id="Facebook"><rect class="cls-1" x="40" width="16" height="16"/><path class="cls-3" d="M52,.8H49.73a3,3,0,0,0-2.35,1,3.65,3.65,0,0,0-.94,2.54V5.76H44V8.13h2.43V15.2h2.72V8.13H52V5.76H49.15V4.13a1,1,0,0,1,.18-.59.5.5,0,0,1,.4-.24H52Z"/></g></g><g id="Endereço_40x40_" data-name="Endereço (40x40)"><rect class="cls-1" width="40" height="40"/><path class="cls-3" d="M24.06,18.32a5.7,5.7,0,0,1-8.08,0,5.51,5.51,0,0,1-1.68-4A5.74,5.74,0,0,1,20,8.56a5.74,5.74,0,0,1,5.72,5.72A5.51,5.51,0,0,1,24.06,18.32Zm4-12.12A11,11,0,0,0,20,2.84,11,11,0,0,0,11.94,6.2a11,11,0,0,0-3.36,8.08,9.58,9.58,0,0,0,.72,4l8.16,17.28a2.29,2.29,0,0,0,1,1.16,3,3,0,0,0,1.52.44,3,3,0,0,0,2.56-1.6L30.7,18.28a9.58,9.58,0,0,0,.72-4A10.88,10.88,0,0,0,28.1,6.2Z"/></g></svg>